<?xml version="1.0" encoding="UTF-8"?>
<svg width="31px" height="33px" viewBox="0 0 31 33" version="1.1" xmlns="http://www.w3.org/2000/svg" xmlns:xlink="http://www.w3.org/1999/xlink">
    <!-- Generator: Sketch 48.2 (47327) - http://www.bohemiancoding.com/sketch -->
    <title>Broker</title>
    <desc>Created with Sketch.</desc>
    <defs></defs>
    <g id="13.-Program-Details---Default" stroke="none" stroke-width="1" fill="none" fill-rule="evenodd" transform="translate(-219.000000, -272.000000)">
        <g id="Broker" transform="translate(201.000000, 260.000000)" fill="#000000" fill-rule="nonzero">
            <path d="M48,19.5959596 L38.5882353,19.5959596 L38.5882353,25.4747475 L29.1764706,25.4747475 L29.1764706,19.5959596 L19.7647059,19.5959596 C19.2451765,19.5959596 18.8235294,20.0349091 18.8235294,20.5757576 L18.8235294,43.1111111 C18.8235294,43.6519596 19.2451765,44.0909091 19.7647059,44.0909091 L48,44.0909091 C48.5195294,44.0909091 48.9411765,43.6519596 48.9411765,43.1111111 L48.9411765,20.5757576 C48.9411765,20.0349091 48.5195294,19.5959596 48,19.5959596 Z M31.0588235,38.2121212 L23.5294118,38.2121212 L23.5294118,30.3737374 L31.0588235,30.3737374 L31.0588235,38.2121212 Z M44.2352941,38.2121212 L34.8235294,38.2121212 L34.8235294,36.2525253 L44.2352941,36.2525253 L44.2352941,38.2121212 Z M44.2352941,32.3333333 L34.8235294,32.3333333 L34.8235294,30.3737374 L44.2352941,30.3737374 L44.2352941,32.3333333 Z M36.7058824,23.5151515 L31.0588235,23.5151515 L31.0588235,15.6767677 C31.0588235,14.0532424 32.3228235,12.7373737 33.8823529,12.7373737 C35.4418824,12.7373737 36.7058824,14.0532424 36.7058824,15.6767677 L36.7058824,23.5151515 Z"></path>
        </g>
    </g>
</svg>