<?xml version="1.0" encoding="UTF-8"?>
<svg width="37px" height="37px" viewBox="0 0 37 37" version="1.1" xmlns="http://www.w3.org/2000/svg" xmlns:xlink="http://www.w3.org/1999/xlink">
    <!-- Generator: Sketch 48.2 (47327) - http://www.bohemiancoding.com/sketch -->
    <title>Icon / Spreadsheet</title>
    <desc>Created with Sketch.</desc>
    <defs></defs>
    <g id="Symbols" stroke="none" stroke-width="1" fill="none" fill-rule="evenodd">
        <g id="Icon-/-Spreadsheet">
            <rect id="Rectangle-16" fill="#207245" x="6" y="7" width="21" height="21"></rect>
            <polygon id="Line-Copy-3" fill="#FFFFFF" fill-rule="nonzero" points="6.84082031 11.9833333 27.8408203 11.9833333 27.8408203 10.75 6.84082031 10.75"></polygon>
            <polygon id="Line-Copy-3" fill="#FFFFFF" fill-rule="nonzero" points="6.84082031 15.7333333 27.8408203 15.7333333 27.8408203 14.5 6.84082031 14.5"></polygon>
            <polygon id="Line-Copy-3" fill="#FFFFFF" fill-rule="nonzero" transform="translate(13.750000, 17.630000) rotate(90.000000) translate(-13.750000, -17.630000) " points="3.75 18.3800001 23.75 18.3800001 23.75 16.8800001 3.75 16.8800001"></polygon>
            <polygon id="Line-Copy-3" fill="#FFFFFF" fill-rule="nonzero" transform="translate(20.250000, 17.630000) rotate(90.000000) translate(-20.250000, -17.630000) " points="10.25 18.3800001 30.25 18.3800001 30.25 16.8800001 10.25 16.8800001"></polygon>
            <polygon id="Line-Copy-4" fill="#FFFFFF" fill-rule="nonzero" points="6.84082031 19.5833337 27.8408203 19.5833337 27.8408203 18.3500004 6.84082031 18.3500004"></polygon>
            <polygon id="Line-Copy-5" fill="#FFFFFF" fill-rule="nonzero" points="6.84082031 23.4833333 27.8408203 23.4833333 27.8408203 22.25 6.84082031 22.25"></polygon>
            <path d="M7.375,26.7777778 L26.625,26.7777778 L26.625,7.22222222 L7.375,7.22222222 L7.375,26.7777778 Z M6,6 L28,6 L28,28 L6,28 L6,6 Z" id="Rectangle-11" fill="#207245" fill-rule="nonzero"></path>
            <path d="M8.25,25.8888889 L25.75,25.8888889 L25.75,8.11111111 L8.25,8.11111111 L8.25,25.8888889 Z M7,7 L27,7 L27,27 L7,27 L7,7 Z" id="Rectangle-11" fill="#FFFFFF" fill-rule="nonzero"></path>
        </g>
    </g>
</svg>